<svg width="62" height="70" viewBox="0 0 62 70" fill="none" xmlns="http://www.w3.org/2000/svg">
<g clip-path="url(#clip0_6_11)">
<path d="M0 70V23.3864L31 0L62 23.3864V70H0ZM4.68969 65.2988H57.3103V25.737L31 5.85645L4.68969 25.7237V65.2988Z" fill="#BCBCBC"/>
<path d="M31 59.4999C28.541 57.4178 25.8596 55.8018 22.9558 54.6518C20.0519 53.5018 17.0667 52.8755 14 52.7729V32.8231C17.0436 32.9128 20.0205 33.6615 22.9308 35.0692C25.841 36.4769 28.5308 38.3294 31 40.6268C33.4692 38.3294 36.1589 36.4769 39.0692 35.0692C41.9794 33.6615 44.9563 32.9128 47.9999 32.8231V52.7729C44.9332 52.8755 41.948 53.5018 39.0442 54.6518C36.1403 55.8018 33.4589 57.4178 31 59.4999ZM31.1115 33.0153C29.15 33.0153 27.4916 32.3409 26.1365 30.9922C24.7814 29.6435 24.1039 27.982 24.1039 26.0077C24.1039 24.0461 24.7814 22.3878 26.1365 21.0327C27.4916 19.6776 29.15 19 31.1115 19C33.073 19 34.7313 19.6776 36.0865 21.0327C37.4416 22.3878 38.1192 24.0461 38.1192 26.0077C38.1192 27.982 37.4416 29.6435 36.0865 30.9922C34.7313 32.3409 33.073 33.0153 31.1115 33.0153Z" fill="#BCBCBC"/>
</g>
<defs>
<clipPath id="clip0_6_11">
<rect width="62" height="70" fill="white"/>
</clipPath>
</defs>
</svg>
