<svg width="128" height="183" viewBox="0 0 128 183" fill="none" xmlns="http://www.w3.org/2000/svg">
<rect width="128" height="183" fill="#6B6B6B"/>
<path d="M40.35 126C37.475 126 35.0313 124.994 33.0187 122.981C31.0062 120.969 30 118.525 30 115.65V67.35C30 64.475 31.0062 62.0313 33.0187 60.0187C35.0313 58.0062 37.475 57 40.35 57H88.65C91.525 57 93.9687 58.0062 95.9812 60.0187C97.9937 62.0313 99 64.475 99 67.35V115.65C99 118.525 97.9937 120.969 95.9812 122.981C93.9687 124.994 91.525 126 88.65 126H40.35ZM40.35 120.825H88.65C90.1162 120.825 91.3453 120.329 92.3372 119.337C93.3291 118.345 93.825 117.116 93.825 115.65V67.35C93.825 65.8837 93.3291 64.6547 92.3372 63.6628C91.3453 62.6709 90.1162 62.175 88.65 62.175H40.35C38.8837 62.175 37.6547 62.6709 36.6628 63.6628C35.6709 64.6547 35.175 65.8837 35.175 67.35V115.65C35.175 117.116 35.6709 118.345 36.6628 119.337C37.6547 120.329 38.8837 120.825 40.35 120.825ZM45.87 111.337L57.6 99.6075L63.8962 105.817L71.4 96.33L83.3887 111.337H45.87ZM50.6923 83.7375C49.0299 83.7375 47.6094 83.1456 46.4306 81.9617C45.2519 80.7779 44.6625 79.3548 44.6625 77.6923C44.6625 76.0299 45.2544 74.6094 46.4383 73.4306C47.6221 72.2519 49.0452 71.6625 50.7077 71.6625C52.3701 71.6625 53.7906 72.2544 54.9694 73.4383C56.1481 74.6221 56.7375 76.0452 56.7375 77.7077C56.7375 79.3701 56.1456 80.7906 54.9617 81.9694C53.7779 83.1481 52.3548 83.7375 50.6923 83.7375Z" fill="#3D3D3D"/>
</svg>
